<svg width="30" height="22" viewBox="0 0 30 22" fill="none" xmlns="http://www.w3.org/2000/svg">
<path fill-rule="evenodd" clip-rule="evenodd" d="M9.96091 2.38683H1.31833C0.988741 2.38683 0.717747 2.65783 0.717747 2.98742V8.01916H0.659153C0.295383 8.01916 -2.67029e-05 8.31701 -2.67029e-05 8.67834V9.4132C-2.67029e-05 9.78185 0.302708 10.0821 0.668919 10.0821H5.30759C1.86032 10.3898 -0.10989 13.5953 0.104954 17.7628H3.17136C3.1738 19.7721 4.80466 21.3981 6.81394 21.3981C8.82321 21.3981 10.4541 19.7696 10.4565 17.7628H19.8242C19.8266 17.6969 19.8291 17.6334 19.8315 17.5675C19.8242 18.0094 19.851 18.4781 19.9145 18.9786L28.0786 15.1334L30 14.2252C28.457 12.4698 26.5966 11.7325 24.3457 12.2403C23.999 12.3282 23.6718 12.4308 23.3618 12.548C23.6792 12.4259 24.0136 12.3234 24.3652 12.2355L21.7968 3.77599L22.9565 3.75402C23.1958 3.74914 23.4546 3.81506 23.6181 3.69787C23.9013 3.69054 24.1479 3.51965 24.3188 3.25109C24.4726 3.01183 24.5654 2.68468 24.5654 2.32824C24.5654 1.97179 24.4702 1.64465 24.3188 1.40539C24.1919 1.20763 24.0258 1.06359 23.8354 0.997673C23.833 0.95861 23.8305 0.931755 23.8257 0.924431C23.5522 0.487419 23.02 0.619255 22.5464 0.619255L22.0849 0.648552C21.7505 0.690056 21.4233 0.799919 21.1084 0.980583L20.581 1.27599H20.1538L18.7182 1.55431C18.2495 1.64465 18.1811 1.60558 18.291 2.1842C18.3056 2.25744 18.3227 2.33068 18.3471 2.40148C18.4887 2.82384 18.601 2.66759 19.0381 2.57726L20.3833 2.29894C20.332 2.84093 20.5029 3.505 20.7446 4.28136C19.9707 4.93566 19.624 5.86828 20.1513 7.09631L21.4355 11.0538C19.2822 12.5797 17.9883 13.9615 17.915 16.2296H15.0659C13.3105 14.899 13.601 12.5309 15.5273 11.0172V10.0846V8.65881C15.5249 8.20715 15.2832 8.00451 14.834 8.01672H10.5615V2.98742C10.5615 2.65783 10.2905 2.38683 9.96091 2.38683ZM7.8613 7.10851H3.4155C3.38132 7.10851 3.35202 7.13781 3.35202 7.17199V7.29894C3.35202 7.33312 3.38132 7.36242 3.4155 7.36242H7.8613C7.89548 7.36242 7.92478 7.33312 7.92478 7.29894V7.17199C7.92478 7.13781 7.89792 7.10851 7.8613 7.10851ZM5.45407 4.34484C4.15281 4.44982 3.21042 5.42882 3.374 6.71789H7.90524C8.06394 5.4215 7.11911 4.44006 5.80808 4.34484V3.98107H6.1694C6.20603 3.98107 6.23532 3.95177 6.23532 3.91515V3.67834C6.23532 3.64172 6.20603 3.61242 6.1694 3.61242H5.10251C5.06589 3.61242 5.03659 3.64172 5.03659 3.67834V3.91515C5.03659 3.95177 5.06589 3.98107 5.10251 3.98107H5.45652V4.34484H5.45407ZM28.0688 15.1383L24.8217 16.6764L25.8764 16.193C26.6015 16.3468 27.1435 16.9913 27.1435 17.7604C27.1435 18.6466 26.4258 19.3644 25.5395 19.3644C24.6533 19.3644 23.9355 18.6466 23.9355 17.7604C23.9355 17.4869 24.0039 17.2306 24.1235 17.0035L21.9067 18.0533C22.0556 19.9283 23.6255 21.4029 25.5371 21.4029C27.5488 21.4029 29.1797 19.7721 29.1797 17.7604C29.1845 16.7301 28.7573 15.7999 28.0688 15.1383ZM23.8305 1.62267C23.8159 2.09142 23.7842 2.69445 23.7622 3.09972C23.8012 3.06554 23.8403 3.0216 23.8745 2.96545C23.977 2.80675 24.0381 2.5797 24.0381 2.3258C24.0381 2.07189 23.9746 1.84484 23.8745 1.68615C23.8598 1.66418 23.8452 1.6422 23.8305 1.62267ZM8.41794 17.7653H5.20993C5.21237 18.649 5.93015 19.3619 6.81394 19.3619C7.69773 19.3644 8.4155 18.649 8.41794 17.7653Z" fill="black"/>
</svg>
